<svg width="32" height="32" viewBox="0 0 32 32" fill="none" xmlns="http://www.w3.org/2000/svg">
  <!-- Background gradient -->
  <defs>
    <linearGradient id="bgGradient" x1="0" y1="0" x2="32" y2="32" gradientUnits="userSpaceOnUse">
      <stop offset="0%" stop-color="#1e40af"/>
      <stop offset="100%" stop-color="#3b82f6"/>
    </linearGradient>
    <linearGradient id="chartGradient" x1="6" y1="24" x2="26" y2="6" gradientUnits="userSpaceOnUse">
      <stop offset="0%" stop-color="#60a5fa" stop-opacity="0.8"/>
      <stop offset="100%" stop-color="#34d399" stop-opacity="0.9"/>
    </linearGradient>
  </defs>
  
  <!-- Background with rounded corners -->
  <rect width="32" height="32" rx="7" fill="url(#bgGradient)"/>
  
  <!-- Chart grid lines (subtle) -->
  <line x1="8" y1="26" x2="28" y2="26" stroke="rgba(255,255,255,0.1)" stroke-width="0.5"/>
  <line x1="8" y1="20" x2="28" y2="20" stroke="rgba(255,255,255,0.1)" stroke-width="0.5"/>
  <line x1="8" y1="14" x2="28" y2="14" stroke="rgba(255,255,255,0.1)" stroke-width="0.5"/>
  
  <!-- Main chart line trending upward -->
  <path d="M8 22 L12 19 L16 16 L20 12 L24 8 L28 5" 
        stroke="url(#chartGradient)" 
        stroke-width="2.5" 
        stroke-linecap="round" 
        stroke-linejoin="round"/>
  
  <!-- Chart area fill -->
  <path d="M8 22 L12 19 L16 16 L20 12 L24 8 L28 5 L28 26 L8 26 Z" 
        fill="url(#chartGradient)" 
        fill-opacity="0.25"/>
  
  <!-- Data points (circles) -->
  <circle cx="12" cy="19" r="1.8" fill="#ffffff" stroke="#1e40af" stroke-width="0.5"/>
  <circle cx="16" cy="16" r="1.8" fill="#ffffff" stroke="#1e40af" stroke-width="0.5"/>
  <circle cx="20" cy="12" r="1.8" fill="#ffffff" stroke="#1e40af" stroke-width="0.5"/>
  <circle cx="24" cy="8" r="1.8" fill="#ffffff" stroke="#1e40af" stroke-width="0.5"/>
  <circle cx="28" cy="5" r="2" fill="#10b981" stroke="#ffffff" stroke-width="1"/>
  
  <!-- Upward trend arrow -->
  <path d="M25 7 L27 5 L29 7 M27 5 L27 3" 
        stroke="#10b981" 
        stroke-width="1.5" 
        stroke-linecap="round" 
        stroke-linejoin="round" 
        fill="none"/>
</svg>
